# xmcd
#
# Track frame offsets:
#	150
#	16822
#	35687
#	55007
#	72065
#	89915
#	106657
#	127400
#	146147
#	160222
#	175017
#	192777
#	213857
#	230540
#
# Disc length: 3301 seconds
#
# Revision: 0
# Processed by: cddbd v1.5.1PL0 Copyright (c) Steve Scherf et al.
# Submitted via: dBpowerAMP V4.0
#
DISCID=c20ce30e
DTITLE=Fernanda - Brilho da Noite
DYEAR=2001
DGENRE=MPB
TTITLE0=Brilho da Noite
TTITLE1=Amor de Brinquedo
TTITLE2=Tanto Faz
TTITLE3=Anjo Azul (Lovin' You)
TTITLE4=Juro Que Não
TTITLE5=Me Liga
TTITLE6=Asas
TTITLE7=Dança Sem Par (Wichita Lineman)
TTITLE8=Tarde Demais
TTITLE9=Movimentos Raros
TTITLE10=Paixão
TTITLE11=Além da Sedução
TTITLE12=Let's Stay Together
TTITLE13=Lovin' You
EXTD=
EXTT0=
EXTT1=
EXTT2=
EXTT3=
EXTT4=
EXTT5=
EXTT6=
EXTT7=
EXTT8=
EXTT9=
EXTT10=
EXTT11=
EXTT12=
EXTT13=
PLAYORDER=
